# xmcd
#
# Track frame offsets:
# 150
# 46210
# 89761
# 128886
# 150709
# 192595
# 229195
# 252414
# 277930
#
# Disc length: 4019 seconds
#
# Revision: 0
# Processed by: cddbd v1.4PL0 Copyright (c) Steve Scherf et al.
# Submitted via: Audion 3.0.2 (http://www.panic.com/audion/)
#
DISCID=7d0fb109
DTITLE=Grand Papa Diabaté - Guitar Extra Dry
DYEAR=1900
DGENRE=
TTITLE0=Mamay, 14ième partie
TTITLE1=Mami Wata
TTITLE2=Nanfoulé
TTITLE3=Mamaya, 15ième partie
TTITLE4=Ni Bara T'i La
TTITLE5=Domamo Ni Koromamo
TTITLE6=Lamban
TTITLE7=Domano Ni Koramamo
TTITLE8=Iyé Iyé
EXTD=
EXTT0=
EXTT1=
EXTT2=
EXTT3=
EXTT4=
EXTT5=
EXTT6=
EXTT7=
EXTT8=
PLAYORDER=
